<svg xmlns="http://www.w3.org/2000/svg" width="656" height="960" fill="none"><g clip-path="url(#a)"><g clip-path="url(#b)"><rect width="656" height="960" fill="#C3FAE8" rx="32"/><path fill="#F1F3F5" d="M507 84c13.255 0 24 10.745 24 24v1029H-8V84z"/><path stroke="#fff" stroke-width="16" d="M507 84c13.255 0 24 10.745 24 24v1029H-8V84z"/><path stroke="#212529" stroke-linecap="round" stroke-linejoin="round" stroke-width="1.5" d="M45 142.24h-3.548a2.359 2.359 0 0 1 0-4.717H45m-3.713 2.306h-.004m-13.051-1.942v-1.031a4.6 4.6 0 0 1 4.598-4.598h7.573A4.6 4.6 0 0 1 45 136.856v6.289a4.6 4.6 0 0 1-4.598 4.598h-2.316m-4.723-.107v-5.554m0 5.554 1.734-1.671m-1.734 1.671-1.732-1.671m-2.897-3.883v5.554m0-5.554L27 143.754m1.734-1.672 1.732 1.672"/><path fill="#343A40" d="M59.29 145v-8.596h-2.898V135.2h7.266v1.204h-2.884V145zm4.462 0v-6.944h1.33l.127 1.316a2.74 2.74 0 0 1 1.007-1.078q.66-.406 1.583-.406v1.554h-.407q-.615 0-1.105.21a1.6 1.6 0 0 0-.77.686q-.28.476-.28 1.33V145zm7.17.168q-.88 0-1.455-.294t-.854-.77a2.1 2.1 0 0 1-.28-1.064q0-1.008.784-1.596t2.24-.588h1.82v-.126q0-.811-.448-1.218-.435-.406-1.134-.406a1.9 1.9 0 0 0-1.078.308q-.448.294-.546.882h-1.484q.07-.756.504-1.288a2.84 2.84 0 0 1 1.12-.826 3.8 3.8 0 0 1 1.498-.294q1.456 0 2.254.77.798.756.798 2.072V145h-1.288l-.126-1.19q-.294.575-.854.966-.561.392-1.47.392m.295-1.204q.601 0 1.008-.28.42-.294.644-.77.239-.476.294-1.05H71.51q-.882 0-1.26.308a.97.97 0 0 0-.364.77q0 .476.35.756.365.266.98.266M75.89 145v-6.944h1.316l.112 1.218a2.4 2.4 0 0 1 .938-1.008q.63-.378 1.442-.378 1.26 0 1.974.784.728.784.728 2.338V145h-1.47v-3.836q0-2.016-1.652-2.016-.826 0-1.372.588-.532.588-.532 1.68V145zm10.53.168q-1.315 0-2.17-.644a2.41 2.41 0 0 1-.98-1.708h1.498q.112.476.532.826.42.336 1.106.336.672 0 .98-.28t.308-.644q0-.532-.434-.714-.42-.196-1.176-.35a9 9 0 0 1-1.176-.336 2.7 2.7 0 0 1-.966-.588q-.378-.391-.378-1.05 0-.91.7-1.512.7-.616 1.96-.616 1.162 0 1.876.56.728.56.854 1.582h-1.428a1.02 1.02 0 0 0-.42-.7q-.336-.252-.91-.252-.56 0-.868.238a.7.7 0 0 0-.308.588q0 .364.42.574.434.21 1.134.378.7.154 1.288.364.602.196.966.588t.364 1.148q.014.952-.742 1.582-.742.63-2.03.63m6.244 0q-.882 0-1.456-.294t-.854-.77a2.1 2.1 0 0 1-.28-1.064q0-1.008.784-1.596.785-.588 2.24-.588h1.82v-.126q0-.811-.448-1.218-.434-.406-1.134-.406a1.9 1.9 0 0 0-1.078.308q-.448.294-.546.882h-1.484q.07-.756.504-1.288a2.84 2.84 0 0 1 1.12-.826 3.8 3.8 0 0 1 1.498-.294q1.455 0 2.254.77.798.756.798 2.072V145h-1.288l-.126-1.19q-.293.575-.854.966-.56.392-1.47.392m.294-1.204q.601 0 1.008-.28.42-.294.644-.77.239-.476.294-1.05h-1.652q-.882 0-1.26.308a.97.97 0 0 0-.364.77q0 .476.35.756.365.266.98.266m7.964 1.204q-1.021 0-1.834-.462a3.4 3.4 0 0 1-1.26-1.274q-.447-.826-.448-1.904 0-1.078.448-1.89a3.34 3.34 0 0 1 1.26-1.288q.813-.462 1.834-.462 1.289 0 2.156.672.882.672 1.134 1.82h-1.554a1.46 1.46 0 0 0-.616-.896q-.475-.322-1.12-.322-.546 0-1.008.28a1.9 1.9 0 0 0-.742.798q-.28.518-.28 1.288t.28 1.302q.28.517.742.798.462.28 1.008.28.645 0 1.12-.322.477-.322.616-.91h1.554a3 3 0 0 1-1.12 1.806q-.882.686-2.17.686m-1.134 3.514v-.896h1.428q.854 0 .854-.588 0-.546-.854-.546h-.77v-1.722h.952v.882q.756-.013 1.274.336.532.35.532 1.078 0 .714-.518 1.078-.504.378-1.232.378zm8.782-3.514q-.994 0-1.792-.448a3.4 3.4 0 0 1-1.246-1.274q-.462-.826-.462-1.918t.462-1.904a3.34 3.34 0 0 1 1.274-1.274 3.5 3.5 0 0 1 1.778-.462q.993 0 1.778.462.798.448 1.26 1.274.476.812.476 1.904t-.476 1.918a3.4 3.4 0 0 1-1.26 1.274 3.6 3.6 0 0 1-1.792.448m0-1.274q.531 0 .98-.266.462-.266.742-.784.28-.532.28-1.316 0-.785-.28-1.302a1.84 1.84 0 0 0-.728-.798 1.9 1.9 0 0 0-.98-.266q-.532 0-.994.266a1.95 1.95 0 0 0-.728.798q-.28.517-.28 1.302 0 .784.28 1.316.28.518.728.784t.98.266m.812-6.594a1.26 1.26 0 0 1-.644-.154 37 37 0 0 1-.504-.322.82.82 0 0 0-.504-.168q-.519 0-.602.63h-.826q.126-.812.504-1.19a1.33 1.33 0 0 1 .98-.392q.377 0 .644.168.265.154.49.322a.95.95 0 0 0 .532.154.53.53 0 0 0 .392-.154q.168-.154.21-.476h.826q-.113.798-.518 1.19a1.33 1.33 0 0 1-.98.392m7.069 7.868q-1.022 0-1.82-.448a3.3 3.3 0 0 1-1.232-1.274q-.448-.811-.448-1.89 0-1.092.434-1.918.447-.826 1.232-1.288.798-.462 1.848-.462 1.022 0 1.778.462.756.448 1.176 1.204t.42 1.666q0 .14-.014.308 0 .154-.014.35h-5.404q.07 1.008.658 1.54.602.518 1.386.518.63 0 1.05-.28.434-.294.644-.784h1.484a3.14 3.14 0 0 1-1.12 1.638q-.826.658-2.058.658m0-6.062q-.743 0-1.316.448-.574.434-.7 1.316h3.92q-.042-.812-.574-1.288t-1.33-.476m7.199 6.062q-1.315 0-2.17-.644a2.41 2.41 0 0 1-.98-1.708h1.498q.112.476.532.826.42.336 1.106.336.672 0 .98-.28.309-.28.308-.644 0-.532-.434-.714-.42-.196-1.176-.35a9 9 0 0 1-1.176-.336 2.7 2.7 0 0 1-.966-.588q-.378-.391-.378-1.05 0-.91.7-1.512.7-.616 1.96-.616 1.162 0 1.876.56.728.56.854 1.582h-1.428a1.01 1.01 0 0 0-.42-.7q-.336-.252-.91-.252-.56 0-.868.238a.7.7 0 0 0-.308.588q0 .364.42.574.435.21 1.134.378.7.154 1.288.364.603.196.966.588.364.392.364 1.148.015.952-.742 1.582-.741.63-2.03.63"/><path stroke="#212529" stroke-linecap="round" stroke-linejoin="round" stroke-width="1.5" d="m154 137-6 6-6-6"/><path stroke="#343A40" stroke-linecap="round" stroke-linejoin="round" stroke-width="1.5" d="M467.565 131c-.864 0-1.565.713-1.565 1.59v.936c0 .65.247 1.276.689 1.746l4.846 5.152.002-.003a5.15 5.15 0 0 1 1.462 3.602v4.572c0 .306.32.501.585.357l2.76-1.504a1.31 1.31 0 0 0 .676-1.15v-2.287c0-1.342.519-2.631 1.446-3.587l4.846-5.152c.441-.47.688-1.096.688-1.746v-.936c0-.877-.7-1.59-1.564-1.59z" clip-rule="evenodd"/><path stroke="#343A40" stroke-linecap="round" stroke-linejoin="round" stroke-width="1.5" d="m49 214-6 6 6 6"/><path fill="#495057" d="m129.364 225 3.612-9.8h1.624l3.584 9.8h-1.568l-.84-2.394h-4.004l-.84 2.394zm2.828-3.57h3.164l-1.582-4.466zm10.709 3.738q-.812 0-1.442-.322a2.5 2.5 0 0 1-.98-.91l-.154 1.064h-1.33v-10.08h1.484v4.214q.336-.49.924-.868t1.512-.378q1.008 0 1.778.476a3.3 3.3 0 0 1 1.204 1.302q.447.826.448 1.876 0 1.05-.448 1.876a3.34 3.34 0 0 1-1.204 1.288q-.77.462-1.792.462m-.252-1.288q.951 0 1.568-.644.615-.658.616-1.708 0-.686-.28-1.218a2.06 2.06 0 0 0-.77-.826 2.1 2.1 0 0 0-1.134-.308q-.953 0-1.568.658-.602.658-.602 1.694 0 1.05.602 1.708.615.644 1.568.644m4.801 1.12v-6.944h1.33l.126 1.316a2.73 2.73 0 0 1 1.008-1.078q.657-.406 1.582-.406v1.554h-.406q-.617 0-1.106.21a1.6 1.6 0 0 0-.77.686q-.28.476-.28 1.33V225z"/><rect width="105" height="48" x="209" y="196" fill="#fff" rx="24"/><path fill="#343A40" d="M250.994 225v-9.8h1.75l3.318 6.524 3.304-6.524h1.75v9.8h-1.484v-7.238l-2.996 5.838h-1.148l-3.01-5.824V225zm13.909.168q-.882 0-1.456-.294-.573-.294-.854-.77a2.1 2.1 0 0 1-.28-1.064q0-1.008.784-1.596.785-.588 2.24-.588h1.82v-.126q0-.811-.448-1.218-.433-.406-1.134-.406-.616 0-1.078.308-.447.294-.546.882h-1.484q.07-.756.504-1.288a2.84 2.84 0 0 1 1.12-.826 3.8 3.8 0 0 1 1.498-.294q1.456 0 2.254.77.798.756.798 2.072V225h-1.288l-.126-1.19q-.293.575-.854.966-.56.392-1.47.392m.294-1.204q.603 0 1.008-.28a1.9 1.9 0 0 0 .644-.77q.238-.476.294-1.05h-1.652q-.882 0-1.26.308a.97.97 0 0 0-.364.77.92.92 0 0 0 .35.756q.365.266.98.266m5.515-7.224q-.42 0-.7-.252a.9.9 0 0 1-.266-.658q0-.392.266-.644a.98.98 0 0 1 .7-.266.93.93 0 0 1 .686.266.83.83 0 0 1 .28.644.87.87 0 0 1-.28.658q-.266.252-.686.252m-.742 8.26v-6.944h1.484V225z"/><path fill="#495057" d="M374.36 225.168q-1.372 0-2.184-.77-.798-.77-.798-2.17h1.484q0 .7.336 1.162.35.462 1.134.462.77 0 1.092-.434.322-.448.322-1.134V215.2h1.484v7.084q0 1.386-.77 2.142-.77.742-2.1.742m6.859 0q-1.26 0-1.988-.784-.714-.784-.714-2.338v-3.99h1.484v3.836q0 2.016 1.652 2.016.825 0 1.358-.588.531-.588.532-1.68v-3.584h1.484V225h-1.316l-.112-1.218q-.322.644-.952 1.022-.616.364-1.428.364m5.196-.168v-6.944h1.316l.112 1.218q.321-.643.938-1.008.63-.378 1.442-.378 1.26 0 1.974.784.728.784.728 2.338V225h-1.47v-3.836q0-2.016-1.652-2.016-.826 0-1.372.588-.532.588-.532 1.68V225z"/><path stroke="#343A40" stroke-linecap="round" stroke-linejoin="round" stroke-width="1.5" d="m474 214 6 6-6 6"/><rect width="542" height="88" x="24" y="268" fill="#fff" rx="16"/><rect width="42" height="42" x="41" y="291" fill="#FFF5F5" rx="21"/><rect width="42" height="42" x="41" y="291" stroke="#fff" stroke-width="2" rx="21"/><path stroke="#FF6B6B" stroke-linecap="round" stroke-linejoin="round" stroke-width="1.5" d="M68.333 303.75c0-.523-.319-.854-.74-.72-.264.083-3.38 2.171-3.016 9.664.06.778.397 1.302.976 1.702.569.392.718.886.663 1.546-.13 1.559-.22 2.174-.308 3.736-.043.788.537 1.361 1.298 1.32.658-.036 1.126-.573 1.127-1.322.004-2.852.004-14.23 0-15.926" clip-rule="evenodd"/><path stroke="#FF6B6B" stroke-linecap="round" stroke-linejoin="round" stroke-width="1.5" d="M61.683 303.374c.065 1.461.136 2.92.195 4.381.038.945-.286 1.759-.995 2.386-.969.858-1.207 1.913-1.076 3.166.241 2.309.418 3.679.583 5.996.066.93-.77 1.697-1.617 1.697-.849 0-1.684-.767-1.618-1.697.165-2.317.341-3.687.583-5.996.13-1.253-.108-2.308-1.077-3.166-.708-.627-1.032-1.441-.994-2.386.058-1.461.13-2.92.195-4.381M58.768 306.916l.01-3.465"/><path fill="#343A40" d="m96.368 306.5 4.096-11.2h2.304l4.096 11.2h-2.176l-.896-2.592h-4.368l-.912 2.592zm3.616-4.192h3.248l-1.632-4.656zm7.775 4.192v-11.52h2.048v11.52zm3.64 0v-7.936h1.808l.176 1.072a2.8 2.8 0 0 1 1.008-.912q.64-.352 1.472-.352 1.84 0 2.608 1.424a3.1 3.1 0 0 1 1.152-1.04 3.4 3.4 0 0 1 1.6-.384q1.553 0 2.384.928.832.928.832 2.72v4.48h-2.048v-4.288q0-1.024-.4-1.568-.384-.544-1.2-.544-.831 0-1.344.608-.496.608-.496 1.696v4.096h-2.048v-4.288q0-1.024-.4-1.568t-1.232-.544q-.815 0-1.328.608-.495.608-.496 1.696v4.096zm18.293.192q-1.152 0-2.08-.528a3.96 3.96 0 0 1-1.456-1.456q-.528-.944-.528-2.176t.544-2.16a3.93 3.93 0 0 1 1.456-1.472q.927-.528 2.08-.528 1.136 0 2.048.528a3.8 3.8 0 0 1 1.456 1.472q.544.929.544 2.16t-.544 2.176a3.8 3.8 0 0 1-1.456 1.456 4.1 4.1 0 0 1-2.064.528m0-1.776q.8 0 1.392-.592.591-.608.592-1.792 0-1.183-.592-1.776-.593-.608-1.376-.608-.816 0-1.408.608-.576.593-.576 1.776t.576 1.792q.591.592 1.392.592m9.283 1.776q-1.216 0-2.144-.528a3.9 3.9 0 0 1-1.472-1.472q-.528-.943-.528-2.16 0-1.216.528-2.16a3.9 3.9 0 0 1 1.472-1.472q.928-.528 2.144-.528 1.52 0 2.56.8 1.04.784 1.328 2.176h-2.16a1.53 1.53 0 0 0-.64-.896q-.463-.336-1.104-.336-.847 0-1.44.64-.592.64-.592 1.776t.592 1.776 1.44.64q.64 0 1.104-.32.48-.32.64-.912h2.16q-.288 1.344-1.328 2.16t-2.56.816m-1.44 4.064v-1.184h1.792q.848 0 .848-.576 0-.56-.848-.56h-.976v-2h1.28v.912q.544-.016 1.008.16.48.176.768.544.304.384.304.976 0 .864-.624 1.296t-1.456.432zm10.454-4.064q-1.153 0-2.08-.528a3.96 3.96 0 0 1-1.456-1.456q-.528-.944-.528-2.176t.544-2.16a3.93 3.93 0 0 1 1.456-1.472q.928-.528 2.08-.528 1.136 0 2.048.528a3.8 3.8 0 0 1 1.456 1.472q.543.929.544 2.16 0 1.232-.544 2.176a3.8 3.8 0 0 1-1.456 1.456 4.1 4.1 0 0 1-2.064.528m0-1.776q.8 0 1.392-.592.592-.608.592-1.792 0-1.183-.592-1.776-.593-.608-1.376-.608-.817 0-1.408.608-.576.593-.576 1.776t.576 1.792q.591.592 1.392.592"/><path fill="#868E96" d="M100.858 328.668q-1.302 0-2.254-.63-.938-.644-1.442-1.778-.504-1.148-.504-2.66t.504-2.646q.504-1.148 1.442-1.778.952-.644 2.254-.644t2.24.644q.938.63 1.442 1.778.504 1.134.504 2.646t-.504 2.66q-.504 1.134-1.442 1.778-.938.63-2.24.63m0-1.036q.854 0 1.526-.476.686-.49 1.064-1.386.392-.91.392-2.17t-.392-2.156q-.378-.896-1.064-1.372a2.52 2.52 0 0 0-1.526-.49q-.868 0-1.54.49-.672.476-1.064 1.372t-.392 2.156.392 2.17q.392.896 1.064 1.386a2.6 2.6 0 0 0 1.54.476m10.323.868v-2.1h-4.97v-.91l4.76-6.79h1.372v6.664h1.456v1.036h-1.456v2.1zm-3.668-3.136h3.724v-5.362zm7.063 4.466 3.514-12.026h1.162l-3.514 12.026zm9.661-1.162q-1.302 0-2.254-.63-.938-.644-1.442-1.778-.504-1.148-.504-2.66t.504-2.646q.504-1.148 1.442-1.778.952-.644 2.254-.644t2.24.644q.938.63 1.442 1.778.504 1.134.504 2.646t-.504 2.66q-.504 1.134-1.442 1.778-.938.63-2.24.63m0-1.036q.854 0 1.526-.476.686-.49 1.064-1.386.392-.91.392-2.17t-.392-2.156q-.378-.896-1.064-1.372a2.52 2.52 0 0 0-1.526-.49q-.868 0-1.54.49-.672.476-1.064 1.372t-.392 2.156.392 2.17q.392.896 1.064 1.386a2.6 2.6 0 0 0 1.54.476m9.413 1.036q-1.064 0-1.792-.392a3.36 3.36 0 0 1-1.176-1.078 5 5 0 0 1-.644-1.498 7.5 7.5 0 0 1-.196-1.708q0-1.624.448-2.842.448-1.232 1.288-1.918.853-.7 2.058-.7.924 0 1.582.364t1.036.98q.392.601.49 1.344h-1.092q-.154-.798-.686-1.232t-1.344-.434q-1.106 0-1.862 1.05-.743 1.036-.798 3.248.336-.659 1.064-1.134.742-.49 1.778-.49.84 0 1.568.392.742.392 1.204 1.106.462.7.462 1.652 0 .826-.406 1.582a3.24 3.24 0 0 1-1.176 1.232q-.756.476-1.806.476m-.084-1.036q.658 0 1.176-.28t.812-.77q.294-.504.294-1.148 0-.994-.658-1.582-.644-.602-1.624-.602-.658 0-1.176.308a2.26 2.26 0 0 0-.826.798 2.13 2.13 0 0 0-.294 1.092q0 .63.294 1.134.308.49.826.77.517.28 1.176.28m4.183 2.198 3.514-12.026h1.162l-3.514 12.026zm5.959-1.33v-.826a36 36 0 0 0 1.876-1.582 19 19 0 0 0 1.582-1.596 7.6 7.6 0 0 0 1.092-1.54q.406-.756.406-1.456 0-.518-.182-.966a1.46 1.46 0 0 0-.56-.714q-.392-.28-1.064-.28-.643 0-1.078.294a1.8 1.8 0 0 0-.658.756q-.21.476-.21 1.022h-1.134q0-.966.406-1.652.407-.7 1.106-1.064a3.4 3.4 0 0 1 1.582-.364q1.303 0 2.128.742.84.727.84 2.184 0 .868-.434 1.722a9 9 0 0 1-1.106 1.638 15 15 0 0 1-1.442 1.47q-.756.686-1.414 1.232h4.732v.98zm11.851.168q-1.302 0-2.254-.63-.938-.644-1.442-1.778-.504-1.148-.504-2.66t.504-2.646q.504-1.148 1.442-1.778.952-.644 2.254-.644t2.24.644q.939.63 1.442 1.778.504 1.134.504 2.646t-.504 2.66q-.504 1.134-1.442 1.778-.938.63-2.24.63m0-1.036q.855 0 1.526-.476.686-.49 1.064-1.386.392-.91.392-2.17t-.392-2.156q-.377-.896-1.064-1.372a2.52 2.52 0 0 0-1.526-.49q-.868 0-1.54.49-.672.476-1.064 1.372t-.392 2.156.392 2.17q.393.896 1.064 1.386.673.476 1.54.476m5.594.868v-.826a36 36 0 0 0 1.876-1.582 19 19 0 0 0 1.582-1.596 7.6 7.6 0 0 0 1.092-1.54q.406-.756.406-1.456 0-.518-.182-.966a1.46 1.46 0 0 0-.56-.714q-.392-.28-1.064-.28-.643 0-1.078.294a1.8 1.8 0 0 0-.658.756q-.21.476-.21 1.022h-1.134q0-.966.406-1.652.407-.7 1.106-1.064a3.4 3.4 0 0 1 1.582-.364q1.303 0 2.128.742.84.727.84 2.184 0 .868-.434 1.722a9 9 0 0 1-1.106 1.638 15 15 0 0 1-1.442 1.47q-.756.686-1.414 1.232h4.732v.98zm11.218.168q-.938 0-1.694-.336a2.9 2.9 0 0 1-1.218-1.036q-.447-.686-.476-1.708h1.19q.015.84.588 1.456.575.602 1.61.602 1.037 0 1.554-.574.532-.575.532-1.386 0-.686-.336-1.12a1.9 1.9 0 0 0-.882-.644 3.3 3.3 0 0 0-1.204-.21h-.728v-.994h.728q.953 0 1.484-.434.546-.433.546-1.218 0-.658-.434-1.078-.42-.434-1.26-.434-.811 0-1.302.49-.489.476-.546 1.204h-1.19a2.96 2.96 0 0 1 .42-1.414 2.63 2.63 0 0 1 1.064-.952q.672-.35 1.554-.35.952 0 1.582.336.645.336.966.896.336.56.336 1.232 0 .742-.406 1.358-.405.602-1.218.812a2.6 2.6 0 0 1 1.442.826q.574.644.574 1.694 0 .812-.378 1.498a2.7 2.7 0 0 1-1.092 1.078q-.728.406-1.806.406"/><path fill="#E03131" d="M471.6 313.064v-1.424h6.512v1.424zM482.417 317v-11.2h3.856q1.329 0 2.176.448.864.448 1.28 1.216.416.752.416 1.68 0 1.04-.56 1.888-.543.848-1.712 1.216l2.384 4.752h-1.968l-2.176-4.512h-2V317zm1.696-5.792h2.064q1.152 0 1.68-.56.544-.56.544-1.456t-.528-1.424q-.528-.544-1.712-.544h-2.048zm10.563 7.184v-1.232q-1.569-.175-2.512-1.104-.945-.928-.96-2.432h1.792q.016.752.448 1.328.431.56 1.232.752v-3.856a4 4 0 0 1-.272-.08 8 8 0 0 0-.272-.096q-1.296-.432-1.952-1.12-.64-.688-.64-1.808-.016-1.312.848-2.144t2.288-.976v-1.28h1.088v1.296q1.391.16 2.24 1.008.848.848.864 2.128h-1.792a1.76 1.76 0 0 0-.352-.992q-.321-.48-.96-.656v3.424l.256.096q.127.032.256.08.831.272 1.488.656.656.384 1.04 1.008.4.624.4 1.584 0 .8-.384 1.504-.384.688-1.152 1.152t-1.904.544v1.216zM493.3 308.6q0 .64.368.992.368.336 1.008.592v-3.104a1.78 1.78 0 0 0-.992.512q-.384.384-.384 1.008m4.112 5.488q0-.784-.464-1.184-.464-.416-1.184-.688v3.52q.784-.096 1.216-.544a1.53 1.53 0 0 0 .432-1.104m7.829 2.912v-9.28l-1.808.416v-1.248l2.48-1.088h1.088V317zm3.312 0v-1.216a50 50 0 0 0 2.08-1.744 23 23 0 0 0 1.76-1.728q.783-.864 1.232-1.68.447-.832.448-1.6 0-.512-.176-.96a1.53 1.53 0 0 0-.576-.736q-.4-.288-1.072-.288-1.008 0-1.52.64-.497.64-.48 1.536h-1.648q.015-1.184.496-1.984.495-.8 1.312-1.216.831-.416 1.872-.416 1.583 0 2.528.896.96.88.96 2.464 0 .944-.464 1.872a8.4 8.4 0 0 1-1.184 1.792q-.72.848-1.552 1.6t-1.584 1.36h5.12V317zm12.464.192a5 5 0 0 1-1.984-.384 3.3 3.3 0 0 1-1.408-1.2q-.528-.8-.56-2h1.68q.032.896.608 1.52.592.608 1.664.608 1.024 0 1.568-.56.544-.576.544-1.424 0-1.024-.736-1.52-.72-.496-1.776-.496h-.832v-1.408h.848q.944 0 1.52-.448.592-.448.592-1.264 0-.688-.464-1.12-.448-.432-1.28-.432-.864 0-1.36.512-.496.496-.544 1.248h-1.68q.032-.976.48-1.696.464-.72 1.264-1.12t1.84-.4q1.12 0 1.872.4.768.384 1.152 1.056.4.656.4 1.44 0 .896-.496 1.568a2.36 2.36 0 0 1-1.328.896q.96.208 1.584.944.624.72.624 1.872a3.5 3.5 0 0 1-.432 1.712q-.432.768-1.28 1.232t-2.08.464m4.377 1.696.928-3.776h1.68l-1.472 3.776zm8.253-1.696q-1.52 0-2.624-.72-1.087-.736-1.68-2.032-.576-1.312-.576-3.04t.576-3.024q.593-1.312 1.68-2.032 1.104-.736 2.624-.736t2.608.736q1.089.72 1.664 2.032.592 1.296.592 3.024t-.592 3.04q-.575 1.296-1.664 2.032-1.087.72-2.608.72m0-1.52q.912 0 1.616-.512.72-.512 1.12-1.472t.4-2.288-.4-2.288-1.12-1.472a2.68 2.68 0 0 0-1.616-.512q-.927 0-1.632.512-.703.512-1.104 1.472-.4.96-.4 2.288t.4 2.288 1.104 1.472 1.632.512m10.735 1.52q-1.52 0-2.624-.72-1.089-.736-1.68-2.032-.576-1.312-.576-3.04t.576-3.024q.591-1.312 1.68-2.032 1.103-.736 2.624-.736 1.52 0 2.608.736 1.088.72 1.664 2.032.591 1.296.592 3.024 0 1.728-.592 3.04-.576 1.296-1.664 2.032-1.089.72-2.608.72m0-1.52a2.68 2.68 0 0 0 1.616-.512q.72-.512 1.12-1.472t.4-2.288-.4-2.288-1.12-1.472a2.68 2.68 0 0 0-1.616-.512q-.929 0-1.632.512-.705.512-1.104 1.472t-.4 2.288.4 2.288q.399.96 1.104 1.472a2.7 2.7 0 0 0 1.632.512"/><rect width="542" height="88" x="24" y="366" fill="#fff" rx="16"/><rect width="42" height="42" x="41" y="389" fill="#EBFBEE" rx="21"/><rect width="42" height="42" x="41" y="389" stroke="#fff" stroke-width="2" rx="21"/><path stroke="#2B8A3E" stroke-linecap="round" stroke-linejoin="round" stroke-width="1.5" d="M67.035 402.539H56.964c-2.436 0-3.964 1.725-3.964 4.166v6.588c0 2.443 1.52 4.167 3.964 4.167h10.07c2.445 0 3.966-1.724 3.966-4.167v-6.588c0-2.441-1.52-4.166-3.965-4.166" clip-rule="evenodd"/><path stroke="#2B8A3E" stroke-linecap="round" stroke-linejoin="round" stroke-width="1.5" d="M53 407.834h18M57.177 413.17h2.968"/><path fill="#343A40" d="M100.912 404.692q-1.232 0-2.176-.416-.944-.432-1.488-1.216-.545-.8-.56-1.936h2.16q.032.784.56 1.328.544.528 1.488.528.816 0 1.296-.384.48-.4.48-1.056 0-.688-.432-1.072-.416-.384-1.12-.624l-1.504-.512q-1.296-.448-1.984-1.152-.672-.704-.672-1.872-.015-.992.464-1.696.496-.72 1.344-1.104.848-.4 1.952-.4 1.12 0 1.968.4.864.4 1.344 1.12.497.72.528 1.712h-2.192a1.49 1.49 0 0 0-.464-1.04q-.432-.464-1.216-.464-.672-.017-1.136.336-.448.336-.448.992 0 .56.352.896.352.32.96.544t1.392.48a9.5 9.5 0 0 1 1.52.672 3.1 3.1 0 0 1 1.104 1.024q.416.624.416 1.616 0 .88-.448 1.632t-1.328 1.216q-.88.448-2.16.448m7.911 0q-1.024 0-1.68-.32-.656-.336-.976-.88a2.33 2.33 0 0 1-.32-1.2q0-1.104.864-1.792t2.592-.688h2.016v-.192q0-.816-.464-1.2-.463-.384-1.152-.384-.624 0-1.088.304-.463.288-.576.864h-2a2.8 2.8 0 0 1 .576-1.504 3.26 3.26 0 0 1 1.312-.976q.8-.352 1.792-.352 1.696 0 2.672.848.976.847.976 2.4v4.88h-1.744l-.192-1.28a2.9 2.9 0 0 1-.992 1.056q-.624.416-1.616.416m.464-1.6q.88 0 1.36-.576.496-.576.624-1.424h-1.744q-.816 0-1.168.304a.9.9 0 0 0-.352.72q0 .464.352.72t.928.256m5.534 1.408v-11.52h2.048v11.52zm6.377.192q-1.024 0-1.68-.32-.656-.336-.976-.88a2.33 2.33 0 0 1-.32-1.2q0-1.104.864-1.792t2.592-.688h2.016v-.192q0-.816-.464-1.2-.463-.384-1.152-.384-.624 0-1.088.304-.463.288-.576.864h-2a2.8 2.8 0 0 1 .576-1.504 3.26 3.26 0 0 1 1.312-.976q.8-.352 1.792-.352 1.696 0 2.672.848.976.847.976 2.4v4.88h-1.744l-.192-1.28a2.9 2.9 0 0 1-.992 1.056q-.624.416-1.616.416m.464-1.6q.88 0 1.36-.576.496-.576.624-1.424h-1.744q-.816 0-1.168.304a.9.9 0 0 0-.352.72q0 .464.352.72t.928.256m-.144-7.168v-1.44l3.616-1.952v1.664zm5.678 8.576v-7.936h1.824l.192 1.488a3.3 3.3 0 0 1 1.168-1.216q.752-.464 1.76-.464v2.16h-.576q-.672 0-1.2.208a1.66 1.66 0 0 0-.832.72q-.288.512-.288 1.424v3.616zm6.948-9.168q-.56 0-.928-.336a1.12 1.12 0 0 1-.352-.848q0-.512.352-.832.368-.336.928-.336t.912.336q.368.32.368.832a1.1 1.1 0 0 1-.368.848q-.353.336-.912.336m-1.024 9.168v-7.936h2.048v7.936zm7.494.192q-1.153 0-2.08-.528a3.96 3.96 0 0 1-1.456-1.456q-.528-.944-.528-2.176t.544-2.16a3.93 3.93 0 0 1 1.456-1.472q.928-.528 2.08-.528 1.136 0 2.048.528a3.8 3.8 0 0 1 1.456 1.472q.543.929.544 2.16 0 1.232-.544 2.176a3.8 3.8 0 0 1-1.456 1.456 4.1 4.1 0 0 1-2.064.528m0-1.776q.8 0 1.392-.592.592-.608.592-1.792 0-1.183-.592-1.776-.593-.608-1.376-.608-.817 0-1.408.608-.576.593-.576 1.776t.576 1.792q.591.592 1.392.592"/><path fill="#868E96" d="M100.858 426.668q-1.302 0-2.254-.63-.938-.644-1.442-1.778-.504-1.148-.504-2.66t.504-2.646q.504-1.148 1.442-1.778.952-.644 2.254-.644t2.24.644q.938.63 1.442 1.778.504 1.134.504 2.646t-.504 2.66q-.504 1.134-1.442 1.778-.938.63-2.24.63m0-1.036q.854 0 1.526-.476.686-.49 1.064-1.386.392-.91.392-2.17t-.392-2.156q-.378-.896-1.064-1.372a2.52 2.52 0 0 0-1.526-.49q-.868 0-1.54.49-.672.476-1.064 1.372t-.392 2.156.392 2.17q.392.896 1.064 1.386a2.6 2.6 0 0 0 1.54.476m10.323.868v-2.1h-4.97v-.91l4.76-6.79h1.372v6.664h1.456v1.036h-1.456v2.1zm-3.668-3.136h3.724v-5.362zm7.063 4.466 3.514-12.026h1.162l-3.514 12.026zm9.661-1.162q-1.302 0-2.254-.63-.938-.644-1.442-1.778-.504-1.148-.504-2.66t.504-2.646q.504-1.148 1.442-1.778.952-.644 2.254-.644t2.24.644q.938.63 1.442 1.778.504 1.134.504 2.646t-.504 2.66q-.504 1.134-1.442 1.778-.938.63-2.24.63m0-1.036q.854 0 1.526-.476.686-.49 1.064-1.386.392-.91.392-2.17t-.392-2.156q-.378-.896-1.064-1.372a2.52 2.52 0 0 0-1.526-.49q-.868 0-1.54.49-.672.476-1.064 1.372t-.392 2.156.392 2.17q.392.896 1.064 1.386a2.6 2.6 0 0 0 1.54.476m9.413 1.036q-1.064 0-1.792-.392a3.36 3.36 0 0 1-1.176-1.078 5 5 0 0 1-.644-1.498 7.5 7.5 0 0 1-.196-1.708q0-1.624.448-2.842.448-1.232 1.288-1.918.853-.7 2.058-.7.924 0 1.582.364t1.036.98q.392.601.49 1.344h-1.092q-.154-.798-.686-1.232t-1.344-.434q-1.106 0-1.862 1.05-.743 1.036-.798 3.248.336-.659 1.064-1.134.742-.49 1.778-.49.84 0 1.568.392.742.392 1.204 1.106.462.7.462 1.652 0 .826-.406 1.582a3.24 3.24 0 0 1-1.176 1.232q-.756.476-1.806.476m-.084-1.036q.658 0 1.176-.28t.812-.77q.294-.504.294-1.148 0-.994-.658-1.582-.644-.602-1.624-.602-.658 0-1.176.308a2.26 2.26 0 0 0-.826.798 2.13 2.13 0 0 0-.294 1.092q0 .63.294 1.134.308.49.826.77.517.28 1.176.28m4.183 2.198 3.514-12.026h1.162l-3.514 12.026zm5.959-1.33v-.826a36 36 0 0 0 1.876-1.582 19 19 0 0 0 1.582-1.596 7.6 7.6 0 0 0 1.092-1.54q.406-.756.406-1.456 0-.518-.182-.966a1.46 1.46 0 0 0-.56-.714q-.392-.28-1.064-.28-.643 0-1.078.294a1.8 1.8 0 0 0-.658.756q-.21.476-.21 1.022h-1.134q0-.966.406-1.652.407-.7 1.106-1.064a3.4 3.4 0 0 1 1.582-.364q1.303 0 2.128.742.84.727.84 2.184 0 .868-.434 1.722a9 9 0 0 1-1.106 1.638 15 15 0 0 1-1.442 1.47q-.756.686-1.414 1.232h4.732v.98zm11.851.168q-1.302 0-2.254-.63-.938-.644-1.442-1.778-.504-1.148-.504-2.66t.504-2.646q.504-1.148 1.442-1.778.952-.644 2.254-.644t2.24.644q.939.63 1.442 1.778.504 1.134.504 2.646t-.504 2.66q-.504 1.134-1.442 1.778-.938.63-2.24.63m0-1.036q.855 0 1.526-.476.686-.49 1.064-1.386.392-.91.392-2.17t-.392-2.156q-.377-.896-1.064-1.372a2.52 2.52 0 0 0-1.526-.49q-.868 0-1.54.49-.672.476-1.064 1.372t-.392 2.156.392 2.17q.393.896 1.064 1.386.673.476 1.54.476m5.594.868v-.826a36 36 0 0 0 1.876-1.582 19 19 0 0 0 1.582-1.596 7.6 7.6 0 0 0 1.092-1.54q.406-.756.406-1.456 0-.518-.182-.966a1.46 1.46 0 0 0-.56-.714q-.392-.28-1.064-.28-.643 0-1.078.294a1.8 1.8 0 0 0-.658.756q-.21.476-.21 1.022h-1.134q0-.966.406-1.652.407-.7 1.106-1.064a3.4 3.4 0 0 1 1.582-.364q1.303 0 2.128.742.84.727.84 2.184 0 .868-.434 1.722a9 9 0 0 1-1.106 1.638 15 15 0 0 1-1.442 1.47q-.756.686-1.414 1.232h4.732v.98zm11.218.168q-.938 0-1.694-.336a2.9 2.9 0 0 1-1.218-1.036q-.447-.686-.476-1.708h1.19q.015.84.588 1.456.575.602 1.61.602 1.037 0 1.554-.574.532-.574.532-1.386 0-.686-.336-1.12a1.9 1.9 0 0 0-.882-.644 3.3 3.3 0 0 0-1.204-.21h-.728v-.994h.728q.953 0 1.484-.434.546-.433.546-1.218 0-.658-.434-1.078-.42-.434-1.26-.434-.811 0-1.302.49-.489.476-.546 1.204h-1.19a2.96 2.96 0 0 1 .42-1.414 2.63 2.63 0 0 1 1.064-.952q.672-.35 1.554-.35.952 0 1.582.336.645.336.966.896.336.56.336 1.232 0 .742-.406 1.358-.405.602-1.218.812a2.6 2.6 0 0 1 1.442.826q.574.644.574 1.694 0 .812-.378 1.498a2.7 2.7 0 0 1-1.092 1.078q-.728.406-1.806.406"/><path fill="#2F9E44" d="M450.523 411.064v-1.424h3.024v-2.832h1.472v2.832h3.024v1.424h-3.024v2.848h-1.472v-2.848zM462.761 415v-11.2h3.856q1.328 0 2.176.448.864.448 1.28 1.216.416.751.416 1.68 0 1.04-.56 1.888-.544.848-1.712 1.216l2.384 4.752h-1.968l-2.176-4.512h-2V415zm1.696-5.792h2.064q1.152 0 1.68-.56.544-.56.544-1.456t-.528-1.424q-.528-.544-1.712-.544h-2.048zm10.562 7.184v-1.232q-1.567-.176-2.512-1.104-.944-.928-.96-2.432h1.792q.016.752.448 1.328.432.56 1.232.752v-3.856a4 4 0 0 1-.272-.08 8 8 0 0 0-.272-.096q-1.296-.432-1.952-1.12-.64-.688-.64-1.808-.016-1.312.848-2.144t2.288-.976v-1.28h1.088v1.296q1.392.16 2.24 1.008t.864 2.128h-1.792a1.75 1.75 0 0 0-.352-.992q-.32-.48-.96-.656v3.424l.256.096q.129.032.256.08.832.272 1.488.656a2.94 2.94 0 0 1 1.04 1.008q.4.624.4 1.584 0 .8-.384 1.504-.384.688-1.152 1.152t-1.904.544v1.216zm-1.376-9.792q0 .64.368.992.369.336 1.008.592v-3.104a1.8 1.8 0 0 0-.992.512q-.384.384-.384 1.008m4.112 5.488q0-.784-.464-1.184-.464-.416-1.184-.688v3.52q.784-.096 1.216-.544a1.53 1.53 0 0 0 .432-1.104m6.454 2.912v-1.216a50 50 0 0 0 2.08-1.744 23 23 0 0 0 1.76-1.728q.784-.864 1.232-1.68.448-.832.448-1.6 0-.512-.176-.96a1.5 1.5 0 0 0-.576-.736q-.4-.288-1.072-.288-1.008 0-1.52.64-.497.64-.48 1.536h-1.648q.016-1.184.496-1.984a3.27 3.27 0 0 1 1.312-1.216q.833-.416 1.872-.416 1.584 0 2.528.896.96.88.96 2.464 0 .944-.464 1.872a8.4 8.4 0 0 1-1.184 1.792 17 17 0 0 1-1.552 1.6q-.833.752-1.584 1.36h5.12V415zm9.488.096q-.48 0-.8-.304a1.05 1.05 0 0 1-.304-.752q0-.448.304-.752.32-.32.8-.32t.784.32q.304.304.304.752 0 .432-.304.752-.304.304-.784.304m6.265.096q-1.184 0-2.048-.416a3.6 3.6 0 0 1-1.376-1.168 3.86 3.86 0 0 1-.608-1.696h1.664q.16.8.8 1.328.64.512 1.584.512.704 0 1.216-.336a2.4 2.4 0 0 0 .8-.928q.288-.576.288-1.296 0-1.136-.64-1.808-.64-.688-1.616-.688-.832 0-1.424.4a2.3 2.3 0 0 0-.864.976h-1.616l.96-6.272h6.048v1.488h-4.768l-.576 2.992q.368-.416 1.008-.688a3.6 3.6 0 0 1 1.472-.288q1.136 0 1.952.528.816.512 1.248 1.392.448.88.448 1.952 0 1.12-.48 2.032a3.7 3.7 0 0 1-1.376 1.456q-.88.528-2.096.528m9.935 0q-1.52 0-2.624-.72-1.088-.736-1.68-2.032-.576-1.312-.576-3.04t.576-3.024q.592-1.312 1.68-2.032 1.104-.736 2.624-.736t2.608.736q1.089.72 1.664 2.032.592 1.296.592 3.024t-.592 3.04q-.575 1.296-1.664 2.032-1.087.72-2.608.72m0-1.52q.912 0 1.616-.512.72-.512 1.12-1.472t.4-2.288-.4-2.288-1.12-1.472a2.68 2.68 0 0 0-1.616-.512q-.927 0-1.632.512-.703.512-1.104 1.472-.4.96-.4 2.288t.4 2.288 1.104 1.472 1.632.512m10.735 1.52q-1.52 0-2.624-.72-1.089-.736-1.68-2.032-.576-1.312-.576-3.04t.576-3.024q.591-1.312 1.68-2.032 1.103-.736 2.624-.736 1.52 0 2.608.736 1.088.72 1.664 2.032.591 1.296.592 3.024 0 1.728-.592 3.04-.576 1.296-1.664 2.032-1.089.72-2.608.72m0-1.52a2.68 2.68 0 0 0 1.616-.512q.72-.512 1.12-1.472t.4-2.288-.4-2.288-1.12-1.472a2.68 2.68 0 0 0-1.616-.512q-.929 0-1.632.512-.705.512-1.104 1.472t-.4 2.288.4 2.288q.399.96 1.104 1.472a2.7 2.7 0 0 0 1.632.512m4.762 3.216.928-3.776h1.68l-1.472 3.776zm8.253-1.696q-1.52 0-2.624-.72-1.087-.736-1.68-2.032-.576-1.312-.576-3.04t.576-3.024q.593-1.312 1.68-2.032 1.104-.736 2.624-.736t2.608.736q1.089.72 1.664 2.032.592 1.296.592 3.024t-.592 3.04q-.575 1.296-1.664 2.032-1.087.72-2.608.72m0-1.52q.912 0 1.616-.512.72-.512 1.12-1.472t.4-2.288-.4-2.288-1.12-1.472a2.68 2.68 0 0 0-1.616-.512q-.927 0-1.632.512-.703.512-1.104 1.472-.4.96-.4 2.288t.4 2.288 1.104 1.472 1.632.512m10.735 1.52q-1.52 0-2.624-.72-1.089-.736-1.68-2.032-.576-1.312-.576-3.04t.576-3.024q.591-1.312 1.68-2.032 1.103-.736 2.624-.736 1.52 0 2.608.736 1.088.72 1.664 2.032.591 1.296.592 3.024 0 1.728-.592 3.04-.576 1.296-1.664 2.032-1.089.72-2.608.72m0-1.52a2.68 2.68 0 0 0 1.616-.512q.72-.512 1.12-1.472t.4-2.288-.4-2.288-1.12-1.472a2.68 2.68 0 0 0-1.616-.512q-.929 0-1.632.512-.705.512-1.104 1.472t-.4 2.288.4 2.288q.399.96 1.104 1.472a2.7 2.7 0 0 0 1.632.512"/><rect width="542" height="88" x="24" y="463" fill="#fff" rx="16"/><rect width="42" height="42" x="41" y="486" fill="#F8F0FC" rx="21"/><rect width="42" height="42" x="41" y="486" stroke="#fff" stroke-width="2" rx="21"/><path stroke="#CC5DE8" stroke-linecap="round" stroke-linejoin="round" stroke-width="1.5" d="m53 503.565 7.917-3.868a2.54 2.54 0 0 1 2.239 0l7.02 3.43c1.099.536 1.099 2.102 0 2.638l-7.02 3.431a2.55 2.55 0 0 1-2.239 0l-3.278-1.602a.558.558 0 0 0-.803.501v3.579c0 .936.55 1.808 1.42 2.149 2.485.975 4.96.988 7.425.007.865-.343 1.408-1.212 1.408-2.143v-4.403"/><path stroke="#CC5DE8" stroke-linecap="round" stroke-linejoin="round" stroke-width="1.5" d="M53.451 511.495v-4.078c0-.876.639-1.623 1.505-1.759l3.752-.588"/><path fill="#343A40" d="M100.016 501.692q-1.632 0-2.624-.912-.975-.928-.976-2.624h2.048q.015.785.368 1.248.352.464 1.136.464.736 0 1.072-.432.336-.448.336-1.168V490.3h2.048v7.968q0 1.649-.928 2.544-.912.88-2.48.88m8.912 0q-1.233 0-2.176-.416-.945-.432-1.488-1.216-.545-.8-.56-1.936h2.16q.032.784.56 1.328.543.528 1.488.528.816 0 1.296-.384.48-.4.48-1.056 0-.688-.432-1.072-.417-.384-1.12-.624l-1.504-.512q-1.297-.448-1.984-1.152-.672-.704-.672-1.872-.016-.992.464-1.696.495-.72 1.344-1.104.848-.4 1.952-.4 1.119 0 1.968.4.864.4 1.344 1.12.495.72.528 1.712h-2.192a1.5 1.5 0 0 0-.464-1.04q-.433-.464-1.216-.464-.672-.017-1.136.336-.448.336-.448.992 0 .56.352.896.351.32.96.544.608.224 1.392.48a9.5 9.5 0 0 1 1.52.672q.687.384 1.104 1.024.416.624.416 1.616 0 .88-.448 1.632-.449.752-1.328 1.216-.88.448-2.16.448m8.711-.192q-1.248 0-2-.608t-.752-2.16v-3.456h-1.36v-1.712h1.36l.24-2.128h1.808v2.128h2.144v1.712h-2.144v3.472q0 .576.239.8.256.208.865.208h.992v1.744zm5.434.192q-1.024 0-1.68-.32-.656-.336-.976-.88a2.33 2.33 0 0 1-.32-1.2q0-1.104.864-1.792t2.592-.688h2.016v-.192q0-.816-.464-1.2-.463-.384-1.152-.384-.624 0-1.088.304-.463.288-.576.864h-2a2.8 2.8 0 0 1 .576-1.504 3.26 3.26 0 0 1 1.312-.976q.8-.352 1.792-.352 1.696 0 2.672.848.976.847.976 2.4v4.88h-1.744l-.192-1.28a2.9 2.9 0 0 1-.992 1.056q-.624.416-1.616.416m.464-1.6q.88 0 1.36-.576.496-.576.624-1.424h-1.744q-.816 0-1.168.304a.9.9 0 0 0-.352.72q0 .464.352.72t.928.256m9.422 1.6q-1.215 0-2.144-.528a3.9 3.9 0 0 1-1.472-1.472q-.528-.944-.528-2.16t.528-2.16a3.9 3.9 0 0 1 1.472-1.472q.929-.528 2.144-.528 1.52 0 2.56.8 1.04.784 1.328 2.176h-2.16a1.53 1.53 0 0 0-.64-.896q-.463-.336-1.104-.336-.847 0-1.44.64-.591.64-.592 1.776 0 1.136.592 1.776.593.64 1.44.64.64 0 1.104-.32.48-.32.64-.912h2.16q-.287 1.344-1.328 2.16-1.04.816-2.56.816m5.206-.192v-11.52h2.048v6.8l2.816-3.216h2.432l-3.248 3.616 3.776 4.32h-2.56l-3.216-3.984v3.984z"/><path fill="#868E96" d="M100.858 523.668q-1.302 0-2.254-.63-.938-.644-1.442-1.778-.504-1.148-.504-2.66t.504-2.646q.504-1.148 1.442-1.778.952-.644 2.254-.644t2.24.644q.938.63 1.442 1.778.504 1.134.504 2.646t-.504 2.66q-.504 1.134-1.442 1.778-.938.63-2.24.63m0-1.036q.854 0 1.526-.476.686-.49 1.064-1.386.392-.91.392-2.17t-.392-2.156q-.378-.896-1.064-1.372a2.52 2.52 0 0 0-1.526-.49q-.868 0-1.54.49-.672.476-1.064 1.372t-.392 2.156.392 2.17q.392.895 1.064 1.386a2.6 2.6 0 0 0 1.54.476m10.323.868v-2.1h-4.97v-.91l4.76-6.79h1.372v6.664h1.456v1.036h-1.456v2.1zm-3.668-3.136h3.724v-5.362zm7.063 4.466 3.514-12.026h1.162l-3.514 12.026zm9.661-1.162q-1.302 0-2.254-.63-.938-.644-1.442-1.778-.504-1.148-.504-2.66t.504-2.646q.504-1.148 1.442-1.778.952-.644 2.254-.644t2.24.644q.938.63 1.442 1.778.504 1.134.504 2.646t-.504 2.66q-.504 1.134-1.442 1.778-.938.63-2.24.63m0-1.036q.854 0 1.526-.476.686-.49 1.064-1.386.392-.91.392-2.17t-.392-2.156q-.378-.896-1.064-1.372a2.52 2.52 0 0 0-1.526-.49q-.868 0-1.54.49-.672.476-1.064 1.372t-.392 2.156.392 2.17q.392.895 1.064 1.386a2.6 2.6 0 0 0 1.54.476m9.413 1.036q-1.064 0-1.792-.392a3.36 3.36 0 0 1-1.176-1.078 5 5 0 0 1-.644-1.498 7.5 7.5 0 0 1-.196-1.708q0-1.624.448-2.842.448-1.232 1.288-1.918.853-.7 2.058-.7.924 0 1.582.364t1.036.98q.392.601.49 1.344h-1.092q-.154-.798-.686-1.232t-1.344-.434q-1.106 0-1.862 1.05-.743 1.036-.798 3.248.336-.658 1.064-1.134.742-.49 1.778-.49.84 0 1.568.392.742.392 1.204 1.106.462.7.462 1.652 0 .826-.406 1.582a3.24 3.24 0 0 1-1.176 1.232q-.756.476-1.806.476m-.084-1.036q.658 0 1.176-.28t.812-.77q.294-.504.294-1.148 0-.994-.658-1.582-.644-.602-1.624-.602-.658 0-1.176.308a2.26 2.26 0 0 0-.826.798 2.13 2.13 0 0 0-.294 1.092q0 .63.294 1.134.308.49.826.77.517.28 1.176.28m4.183 2.198 3.514-12.026h1.162l-3.514 12.026zm5.959-1.33v-.826a36 36 0 0 0 1.876-1.582 19 19 0 0 0 1.582-1.596 7.6 7.6 0 0 0 1.092-1.54q.406-.756.406-1.456 0-.518-.182-.966a1.46 1.46 0 0 0-.56-.714q-.392-.28-1.064-.28-.643 0-1.078.294a1.8 1.8 0 0 0-.658.756q-.21.476-.21 1.022h-1.134q0-.966.406-1.652.407-.7 1.106-1.064a3.4 3.4 0 0 1 1.582-.364q1.303 0 2.128.742.84.727.84 2.184 0 .869-.434 1.722a9 9 0 0 1-1.106 1.638 15 15 0 0 1-1.442 1.47q-.756.686-1.414 1.232h4.732v.98zm11.851.168q-1.302 0-2.254-.63-.938-.644-1.442-1.778-.504-1.148-.504-2.66t.504-2.646q.504-1.148 1.442-1.778.952-.644 2.254-.644t2.24.644q.939.63 1.442 1.778.504 1.134.504 2.646t-.504 2.66q-.504 1.134-1.442 1.778-.938.63-2.24.63m0-1.036q.855 0 1.526-.476.686-.49 1.064-1.386.392-.91.392-2.17t-.392-2.156q-.377-.896-1.064-1.372a2.52 2.52 0 0 0-1.526-.49q-.868 0-1.54.49-.672.476-1.064 1.372t-.392 2.156.392 2.17q.393.895 1.064 1.386.673.476 1.54.476m5.594.868v-.826a36 36 0 0 0 1.876-1.582 19 19 0 0 0 1.582-1.596 7.6 7.6 0 0 0 1.092-1.54q.406-.756.406-1.456 0-.518-.182-.966a1.46 1.46 0 0 0-.56-.714q-.392-.28-1.064-.28-.643 0-1.078.294a1.8 1.8 0 0 0-.658.756q-.21.476-.21 1.022h-1.134q0-.966.406-1.652.407-.7 1.106-1.064a3.4 3.4 0 0 1 1.582-.364q1.303 0 2.128.742.84.727.84 2.184 0 .869-.434 1.722a9 9 0 0 1-1.106 1.638 15 15 0 0 1-1.442 1.47q-.756.686-1.414 1.232h4.732v.98zm11.218.168q-.938 0-1.694-.336a2.9 2.9 0 0 1-1.218-1.036q-.447-.686-.476-1.708h1.19q.015.84.588 1.456.575.602 1.61.602 1.037 0 1.554-.574.532-.575.532-1.386 0-.686-.336-1.12a1.9 1.9 0 0 0-.882-.644 3.3 3.3 0 0 0-1.204-.21h-.728v-.994h.728q.953 0 1.484-.434.546-.433.546-1.218 0-.658-.434-1.078-.42-.434-1.26-.434-.811 0-1.302.49-.489.476-.546 1.204h-1.19a2.96 2.96 0 0 1 .42-1.414 2.63 2.63 0 0 1 1.064-.952q.672-.35 1.554-.35.952 0 1.582.336.645.336.966.896.336.56.336 1.232 0 .742-.406 1.358-.405.602-1.218.812a2.6 2.6 0 0 1 1.442.826q.574.644.574 1.694 0 .812-.378 1.498a2.7 2.7 0 0 1-1.092 1.078q-.728.406-1.806.406"/><path fill="#E03131" d="M471.6 508.064v-1.424h6.512v1.424zM482.417 512v-11.2h3.856q1.329 0 2.176.448.864.448 1.28 1.216.416.751.416 1.68 0 1.04-.56 1.888-.543.848-1.712 1.216l2.384 4.752h-1.968l-2.176-4.512h-2V512zm1.696-5.792h2.064q1.152 0 1.68-.56.544-.56.544-1.456t-.528-1.424q-.528-.544-1.712-.544h-2.048zm10.563 7.184v-1.232q-1.569-.176-2.512-1.104-.945-.928-.96-2.432h1.792q.016.752.448 1.328.431.56 1.232.752v-3.856a4 4 0 0 1-.272-.08 8 8 0 0 0-.272-.096q-1.296-.432-1.952-1.12-.64-.688-.64-1.808-.016-1.312.848-2.144t2.288-.976v-1.28h1.088v1.296q1.391.16 2.24 1.008.848.848.864 2.128h-1.792a1.76 1.76 0 0 0-.352-.992q-.321-.48-.96-.656v3.424l.256.096q.127.032.256.08.831.272 1.488.656.656.384 1.04 1.008.4.624.4 1.584 0 .8-.384 1.504-.384.688-1.152 1.152t-1.904.544v1.216zM493.3 503.6q0 .64.368.992.368.336 1.008.592v-3.104a1.78 1.78 0 0 0-.992.512q-.384.384-.384 1.008m4.112 5.488q0-.784-.464-1.184-.464-.416-1.184-.688v3.52q.784-.096 1.216-.544a1.53 1.53 0 0 0 .432-1.104m7.829 2.912v-9.28l-1.808.416v-1.248l2.48-1.088h1.088V512zm3.312 0v-1.216a50 50 0 0 0 2.08-1.744 23 23 0 0 0 1.76-1.728q.783-.864 1.232-1.68.447-.832.448-1.6 0-.512-.176-.96a1.53 1.53 0 0 0-.576-.736q-.4-.288-1.072-.288-1.008 0-1.52.64-.497.64-.48 1.536h-1.648q.015-1.184.496-1.984.495-.8 1.312-1.216.831-.416 1.872-.416 1.583 0 2.528.896.96.88.96 2.464 0 .944-.464 1.872a8.4 8.4 0 0 1-1.184 1.792q-.72.848-1.552 1.6t-1.584 1.36h5.12V512zm12.464.192a5 5 0 0 1-1.984-.384 3.3 3.3 0 0 1-1.408-1.2q-.528-.8-.56-2h1.68q.032.896.608 1.52.592.608 1.664.608 1.024 0 1.568-.56.544-.576.544-1.424 0-1.024-.736-1.52-.72-.496-1.776-.496h-.832v-1.408h.848q.944 0 1.52-.448.592-.448.592-1.264 0-.688-.464-1.12-.448-.432-1.28-.432-.864 0-1.36.512-.496.496-.544 1.248h-1.68q.032-.976.48-1.696.464-.72 1.264-1.12t1.84-.4q1.12 0 1.872.4.768.384 1.152 1.056.4.656.4 1.44 0 .896-.496 1.568a2.36 2.36 0 0 1-1.328.896q.96.208 1.584.944.624.72.624 1.872a3.5 3.5 0 0 1-.432 1.712q-.432.768-1.28 1.232t-2.08.464m4.377 1.696.928-3.776h1.68l-1.472 3.776zm8.253-1.696q-1.52 0-2.624-.72-1.087-.736-1.68-2.032-.576-1.312-.576-3.04t.576-3.024q.593-1.312 1.68-2.032 1.104-.736 2.624-.736t2.608.736q1.089.72 1.664 2.032.592 1.296.592 3.024t-.592 3.04q-.575 1.296-1.664 2.032-1.087.72-2.608.72m0-1.52q.912 0 1.616-.512.72-.512 1.12-1.472t.4-2.288-.4-2.288-1.12-1.472a2.68 2.68 0 0 0-1.616-.512q-.927 0-1.632.512-.703.512-1.104 1.472-.4.96-.4 2.288t.4 2.288 1.104 1.472 1.632.512m10.735 1.52q-1.52 0-2.624-.72-1.089-.736-1.68-2.032-.576-1.312-.576-3.04t.576-3.024q.591-1.312 1.68-2.032 1.103-.736 2.624-.736 1.52 0 2.608.736 1.088.72 1.664 2.032.591 1.296.592 3.024 0 1.728-.592 3.04-.576 1.296-1.664 2.032-1.089.72-2.608.72m0-1.52a2.68 2.68 0 0 0 1.616-.512q.72-.512 1.12-1.472t.4-2.288-.4-2.288-1.12-1.472a2.68 2.68 0 0 0-1.616-.512q-.929 0-1.632.512-.705.512-1.104 1.472t-.4 2.288.4 2.288q.399.96 1.104 1.472a2.7 2.7 0 0 0 1.632.512"/><rect width="542" height="88" x="24" y="561" fill="#fff" rx="16"/><rect width="42" height="42" x="41" y="584" fill="#F3F0FF" rx="21"/><rect width="42" height="42" x="41" y="584" stroke="#fff" stroke-width="2" rx="21"/><path stroke="#845EF7" stroke-linecap="round" stroke-linejoin="round" stroke-width="1.5" d="m56.857 601.246.013 1.133a4.145 4.145 0 0 0-2.527 3.844 4.17 4.17 0 0 0 4.177 4.167h6.97a4.17 4.17 0 0 0 4.168-4.167 4.17 4.17 0 0 0-2.54-3.849l.034-1.09c0-1.554-.607-3.092-1.804-4.081A5.24 5.24 0 0 0 62 596a5.23 5.23 0 0 0-3.717 1.544c-.965.969-1.426 2.334-1.426 3.702M59.89 605.38l2.11 2.11M62 605.97l2.11-2.111M62 614v-11.387"/><path fill="#343A40" d="M102.16 599.692q-1.696 0-2.912-.72a4.92 4.92 0 0 1-1.872-2.032q-.656-1.312-.656-3.024t.656-3.024a4.9 4.9 0 0 1 1.872-2.048q1.216-.736 2.912-.736 2.016 0 3.296 1.008 1.296.992 1.616 2.8h-2.256q-.208-.912-.896-1.424-.672-.528-1.792-.528-1.552 0-2.432 1.056t-.88 2.896.88 2.896q.88 1.04 2.432 1.04 1.12 0 1.792-.48.688-.496.896-1.36h2.256q-.32 1.728-1.616 2.704-1.28.976-3.296.976m7.281-9.36q-.56 0-.928-.336a1.12 1.12 0 0 1-.352-.848q0-.512.352-.832.368-.336.928-.336t.912.336q.368.32.368.832a1.1 1.1 0 0 1-.368.848q-.352.336-.912.336m-1.024 9.168v-7.936h2.048v7.936zm3.686 0v-7.936h1.808l.16 1.344a2.8 2.8 0 0 1 1.056-1.12q.703-.416 1.648-.416 1.472 0 2.287.928.816.928.816 2.72v4.48h-2.047v-4.288q0-1.024-.416-1.568-.417-.544-1.296-.544-.864 0-1.424.608-.544.608-.544 1.696v4.096zm13.09.192q-1.2 0-2.128-.512a3.7 3.7 0 0 1-1.456-1.44q-.528-.928-.528-2.144 0-1.232.512-2.192a3.8 3.8 0 0 1 1.44-1.488q.928-.544 2.176-.544 1.168 0 2.064.512a3.6 3.6 0 0 1 1.392 1.408q.512.88.512 1.968 0 .176-.016.368 0 .192-.016.4h-6.032q.064.928.64 1.456.592.528 1.424.528.624 0 1.04-.272a1.77 1.77 0 0 0 .64-.736h2.08q-.224.752-.752 1.376a3.6 3.6 0 0 1-1.28.96q-.752.352-1.712.352m.016-6.656q-.752 0-1.328.432-.576.416-.736 1.28h3.952q-.048-.784-.576-1.248t-1.312-.464m5.19 6.464v-7.936h1.808l.176 1.072a2.8 2.8 0 0 1 1.008-.912q.64-.352 1.472-.352 1.84 0 2.608 1.424a3.1 3.1 0 0 1 1.152-1.04 3.4 3.4 0 0 1 1.6-.384q1.553 0 2.384.928.832.928.832 2.72v4.48h-2.048v-4.288q0-1.024-.4-1.568-.384-.544-1.2-.544-.831 0-1.344.608-.496.608-.496 1.696v4.096h-2.048v-4.288q0-1.024-.4-1.568t-1.232-.544q-.815 0-1.328.608-.496.608-.496 1.696v4.096zm17.221.192q-1.024 0-1.68-.32-.657-.336-.976-.88a2.3 2.3 0 0 1-.32-1.2q0-1.104.864-1.792t2.592-.688h2.016v-.192q0-.816-.464-1.2-.465-.384-1.152-.384-.624 0-1.088.304-.465.288-.576.864h-2a2.8 2.8 0 0 1 .576-1.504 3.26 3.26 0 0 1 1.312-.976q.8-.352 1.792-.352 1.695 0 2.672.848.976.848.976 2.4v4.88h-1.744l-.192-1.28a2.94 2.94 0 0 1-.992 1.056q-.624.416-1.616.416m.464-1.6q.88 0 1.36-.576.495-.576.624-1.424h-1.744q-.816 0-1.168.304a.9.9 0 0 0-.352.72q0 .463.352.72t.928.256"/><path fill="#868E96" d="M100.858 621.668q-1.302 0-2.254-.63-.938-.644-1.442-1.778-.504-1.148-.504-2.66t.504-2.646q.504-1.148 1.442-1.778.952-.644 2.254-.644t2.24.644q.938.63 1.442 1.778.504 1.134.504 2.646t-.504 2.66q-.504 1.134-1.442 1.778-.938.63-2.24.63m0-1.036q.854 0 1.526-.476.686-.49 1.064-1.386.392-.91.392-2.17t-.392-2.156q-.378-.896-1.064-1.372a2.52 2.52 0 0 0-1.526-.49q-.868 0-1.54.49-.672.476-1.064 1.372t-.392 2.156.392 2.17q.392.895 1.064 1.386a2.6 2.6 0 0 0 1.54.476m10.323.868v-2.1h-4.97v-.91l4.76-6.79h1.372v6.664h1.456v1.036h-1.456v2.1zm-3.668-3.136h3.724v-5.362zm7.063 4.466 3.514-12.026h1.162l-3.514 12.026zm9.661-1.162q-1.302 0-2.254-.63-.938-.644-1.442-1.778-.504-1.148-.504-2.66t.504-2.646q.504-1.148 1.442-1.778.952-.644 2.254-.644t2.24.644q.938.63 1.442 1.778.504 1.134.504 2.646t-.504 2.66q-.504 1.134-1.442 1.778-.938.63-2.24.63m0-1.036q.854 0 1.526-.476.686-.49 1.064-1.386.392-.91.392-2.17t-.392-2.156q-.378-.896-1.064-1.372a2.52 2.52 0 0 0-1.526-.49q-.868 0-1.54.49-.672.476-1.064 1.372t-.392 2.156.392 2.17q.392.895 1.064 1.386a2.6 2.6 0 0 0 1.54.476m9.413 1.036q-1.064 0-1.792-.392a3.36 3.36 0 0 1-1.176-1.078 5 5 0 0 1-.644-1.498 7.5 7.5 0 0 1-.196-1.708q0-1.624.448-2.842.448-1.232 1.288-1.918.853-.7 2.058-.7.924 0 1.582.364t1.036.98q.392.601.49 1.344h-1.092q-.154-.798-.686-1.232t-1.344-.434q-1.106 0-1.862 1.05-.743 1.036-.798 3.248.336-.658 1.064-1.134.742-.49 1.778-.49.84 0 1.568.392.742.392 1.204 1.106.462.7.462 1.652 0 .826-.406 1.582a3.24 3.24 0 0 1-1.176 1.232q-.756.476-1.806.476m-.084-1.036q.658 0 1.176-.28t.812-.77q.294-.504.294-1.148 0-.994-.658-1.582-.644-.602-1.624-.602-.658 0-1.176.308a2.26 2.26 0 0 0-.826.798 2.13 2.13 0 0 0-.294 1.092q0 .63.294 1.134.308.49.826.77.517.28 1.176.28m4.183 2.198 3.514-12.026h1.162l-3.514 12.026zm5.959-1.33v-.826a36 36 0 0 0 1.876-1.582 19 19 0 0 0 1.582-1.596 7.6 7.6 0 0 0 1.092-1.54q.406-.756.406-1.456 0-.518-.182-.966a1.46 1.46 0 0 0-.56-.714q-.392-.28-1.064-.28-.643 0-1.078.294a1.8 1.8 0 0 0-.658.756q-.21.476-.21 1.022h-1.134q0-.966.406-1.652.407-.7 1.106-1.064a3.4 3.4 0 0 1 1.582-.364q1.303 0 2.128.742.84.727.84 2.184 0 .869-.434 1.722a9 9 0 0 1-1.106 1.638 15 15 0 0 1-1.442 1.47q-.756.686-1.414 1.232h4.732v.98zm11.851.168q-1.302 0-2.254-.63-.938-.644-1.442-1.778-.504-1.148-.504-2.66t.504-2.646q.504-1.148 1.442-1.778.952-.644 2.254-.644t2.24.644q.939.63 1.442 1.778.504 1.134.504 2.646t-.504 2.66q-.504 1.134-1.442 1.778-.938.63-2.24.63m0-1.036q.855 0 1.526-.476.686-.49 1.064-1.386.392-.91.392-2.17t-.392-2.156q-.377-.896-1.064-1.372a2.52 2.52 0 0 0-1.526-.49q-.868 0-1.54.49-.672.476-1.064 1.372t-.392 2.156.392 2.17q.393.895 1.064 1.386.673.476 1.54.476m5.594.868v-.826a36 36 0 0 0 1.876-1.582 19 19 0 0 0 1.582-1.596 7.6 7.6 0 0 0 1.092-1.54q.406-.756.406-1.456 0-.518-.182-.966a1.46 1.46 0 0 0-.56-.714q-.392-.28-1.064-.28-.643 0-1.078.294a1.8 1.8 0 0 0-.658.756q-.21.476-.21 1.022h-1.134q0-.966.406-1.652.407-.7 1.106-1.064a3.4 3.4 0 0 1 1.582-.364q1.303 0 2.128.742.84.727.84 2.184 0 .869-.434 1.722a9 9 0 0 1-1.106 1.638 15 15 0 0 1-1.442 1.47q-.756.686-1.414 1.232h4.732v.98zm11.218.168q-.938 0-1.694-.336a2.9 2.9 0 0 1-1.218-1.036q-.447-.686-.476-1.708h1.19q.015.84.588 1.456.575.602 1.61.602 1.037 0 1.554-.574.532-.575.532-1.386 0-.686-.336-1.12a1.9 1.9 0 0 0-.882-.644 3.3 3.3 0 0 0-1.204-.21h-.728v-.994h.728q.953 0 1.484-.434.546-.433.546-1.218 0-.658-.434-1.078-.42-.434-1.26-.434-.811 0-1.302.49-.489.476-.546 1.204h-1.19a2.96 2.96 0 0 1 .42-1.414 2.63 2.63 0 0 1 1.064-.952q.672-.35 1.554-.35.952 0 1.582.336.645.336.966.896.336.56.336 1.232 0 .742-.406 1.358-.405.602-1.218.812a2.6 2.6 0 0 1 1.442.826q.574.644.574 1.694 0 .812-.378 1.498a2.7 2.7 0 0 1-1.092 1.078q-.728.406-1.806.406"/><path fill="#E03131" d="M471.6 606.064v-1.424h6.512v1.424zM482.417 610v-11.2h3.856q1.329 0 2.176.448.864.448 1.28 1.216.416.751.416 1.68 0 1.04-.56 1.888-.543.848-1.712 1.216l2.384 4.752h-1.968l-2.176-4.512h-2V610zm1.696-5.792h2.064q1.152 0 1.68-.56.544-.56.544-1.456t-.528-1.424q-.528-.544-1.712-.544h-2.048zm10.563 7.184v-1.232q-1.569-.175-2.512-1.104-.945-.928-.96-2.432h1.792q.016.752.448 1.328.431.56 1.232.752v-3.856a4 4 0 0 1-.272-.08 8 8 0 0 0-.272-.096q-1.296-.432-1.952-1.12-.64-.688-.64-1.808-.016-1.312.848-2.144t2.288-.976v-1.28h1.088v1.296q1.391.16 2.24 1.008.848.848.864 2.128h-1.792a1.76 1.76 0 0 0-.352-.992q-.321-.48-.96-.656v3.424l.256.096q.127.032.256.08.831.272 1.488.656.656.384 1.04 1.008.4.624.4 1.584 0 .8-.384 1.504-.384.688-1.152 1.152t-1.904.544v1.216zM493.3 601.6q0 .64.368.992.368.336 1.008.592v-3.104a1.78 1.78 0 0 0-.992.512q-.384.384-.384 1.008m4.112 5.488q0-.784-.464-1.184-.464-.416-1.184-.688v3.52q.784-.096 1.216-.544a1.53 1.53 0 0 0 .432-1.104m7.829 2.912v-9.28l-1.808.416v-1.248l2.48-1.088h1.088V610zm3.312 0v-1.216a50 50 0 0 0 2.08-1.744 23 23 0 0 0 1.76-1.728q.783-.864 1.232-1.68.447-.832.448-1.6 0-.511-.176-.96a1.53 1.53 0 0 0-.576-.736q-.4-.288-1.072-.288-1.008 0-1.52.64-.497.64-.48 1.536h-1.648q.015-1.184.496-1.984.495-.8 1.312-1.216.831-.416 1.872-.416 1.583 0 2.528.896.96.88.96 2.464 0 .943-.464 1.872a8.4 8.4 0 0 1-1.184 1.792q-.72.848-1.552 1.6t-1.584 1.36h5.12V610zm12.464.192a5 5 0 0 1-1.984-.384 3.3 3.3 0 0 1-1.408-1.2q-.528-.8-.56-2h1.68q.032.896.608 1.52.592.608 1.664.608 1.024 0 1.568-.56.544-.576.544-1.424 0-1.024-.736-1.52-.72-.496-1.776-.496h-.832v-1.408h.848q.944 0 1.52-.448.592-.448.592-1.264 0-.688-.464-1.12-.448-.432-1.28-.432-.864 0-1.36.512-.496.496-.544 1.248h-1.68q.032-.976.48-1.696.464-.72 1.264-1.12t1.84-.4q1.12 0 1.872.4.768.384 1.152 1.056.4.655.4 1.44 0 .896-.496 1.568a2.36 2.36 0 0 1-1.328.896q.96.208 1.584.944.624.72.624 1.872a3.5 3.5 0 0 1-.432 1.712q-.432.768-1.28 1.232t-2.08.464m4.377 1.696.928-3.776h1.68l-1.472 3.776zm8.253-1.696q-1.52 0-2.624-.72-1.087-.736-1.68-2.032-.576-1.312-.576-3.04t.576-3.024q.593-1.312 1.68-2.032 1.104-.736 2.624-.736t2.608.736q1.089.72 1.664 2.032.592 1.296.592 3.024t-.592 3.04q-.575 1.296-1.664 2.032-1.087.72-2.608.72m0-1.52q.912 0 1.616-.512.72-.512 1.12-1.472t.4-2.288-.4-2.288-1.12-1.472a2.68 2.68 0 0 0-1.616-.512q-.927 0-1.632.512-.703.512-1.104 1.472-.4.96-.4 2.288t.4 2.288 1.104 1.472 1.632.512m10.735 1.52q-1.52 0-2.624-.72-1.089-.736-1.68-2.032-.576-1.312-.576-3.04t.576-3.024q.591-1.312 1.68-2.032 1.103-.736 2.624-.736 1.52 0 2.608.736 1.088.72 1.664 2.032.591 1.296.592 3.024 0 1.728-.592 3.04-.576 1.296-1.664 2.032-1.089.72-2.608.72m0-1.52a2.68 2.68 0 0 0 1.616-.512q.72-.512 1.12-1.472t.4-2.288-.4-2.288-1.12-1.472a2.68 2.68 0 0 0-1.616-.512q-.929 0-1.632.512-.705.512-1.104 1.472t-.4 2.288.4 2.288q.399.96 1.104 1.472a2.7 2.7 0 0 0 1.632.512"/></g></g><defs><clipPath id="a"><rect width="656" height="960" fill="#fff" rx="32"/></clipPath><clipPath id="b"><rect width="656" height="960" fill="#fff" rx="32"/></clipPath></defs></svg>